<svg width="192" height="192" viewBox="0 0 192 192" fill="none" xmlns="http://www.w3.org/2000/svg">
<path d="M160.125 0H31.875C14.2709 0 0 14.6368 0 32.6923V159.308C0 177.363 14.2709 192 31.875 192H160.125C177.729 192 192 177.363 192 159.308V32.6923C192 14.6368 177.729 0 160.125 0Z" fill="#1D2325"/>
<path d="M77.1322 114.872H47.379L41.325 134.195C41.2474 134.527 41.0658 134.822 40.8082 135.037C40.5506 135.253 40.2312 135.375 39.8993 135.385L24.7102 135.385C23.8507 135.385 23.55 134.9 23.8088 133.931L49.569 58.1546L49.8262 57.3585L49.9118 57.0862L50.0842 56.5169C50.1698 56.2231 50.2553 55.9115 50.3415 55.5738C50.679 53.8115 50.8515 52.02 50.8568 50.2238C50.8394 50.0983 50.8507 49.9702 50.8898 49.8499C50.929 49.7296 50.9949 49.6203 51.0823 49.5306C51.1698 49.4409 51.2764 49.3733 51.3937 49.3331C51.511 49.293 51.6358 49.2814 51.7583 49.2992H72.2378C72.8378 49.2992 73.1805 49.5192 73.2682 49.96L102.506 134.064C102.763 134.945 102.506 135.385 101.733 135.385H84.9885C84.701 135.417 84.4116 135.342 84.1746 135.171C83.9376 135.001 83.7692 134.748 83.7007 134.46L77.1322 114.872ZM52.0163 98.5785H72.3668L72.0765 97.5961L71.6108 96.0408L70.929 93.8131L69.6203 89.6077L66.0548 78.0361C65.414 75.9576 64.799 73.8707 64.2098 71.7762L63.5513 69.3946L62.8403 66.7846L62.1908 64.3638H62.0618C61.4176 67.5348 60.6328 70.6739 59.7098 73.7715L58.8398 76.6354L56.7473 83.5585L55.6868 87.0854C55.4948 87.7223 55.3042 88.3523 55.113 88.9746L54.543 90.8192L53.976 92.6208L53.412 94.3777L52.851 96.0908C52.572 96.9369 52.293 97.7654 52.0163 98.5785ZM149.905 107.351H124.532C124.842 109.925 125.676 112.405 126.979 114.628C128.419 116.831 130.456 118.553 132.839 119.582C136.068 121.016 139.56 121.718 143.078 121.641C145.869 121.586 148.65 121.273 151.386 120.705C153.833 120.367 156.231 119.726 158.528 118.796C158.957 118.445 159.173 118.664 159.173 119.456V132.006C159.194 132.348 159.128 132.69 158.979 132.997C158.832 133.237 158.634 133.44 158.4 133.592C155.852 134.749 153.17 135.569 150.42 136.03C146.684 136.75 142.886 137.081 139.085 137.02C133.178 137.02 128.199 136.111 124.148 134.293L123.758 134.114C119.863 132.354 116.423 129.685 113.712 126.32C111.18 123.149 109.296 119.488 108.173 115.554C107.062 111.671 106.499 107.645 106.5 103.598C106.488 99.1799 107.162 94.7875 108.497 90.5862C109.781 86.4881 111.814 82.6778 114.485 79.3577C117.12 76.0761 120.415 73.4173 124.145 71.5631C127.923 69.6708 132.389 68.9915 137.54 68.9915C141.813 68.8808 146.057 69.7378 149.97 71.5015C153.26 72.9407 156.156 75.1842 158.406 78.0361C160.516 80.829 162.129 83.9816 163.172 87.3492C164.186 90.5946 164.708 93.981 164.717 97.3892C164.717 99.3277 164.653 101.089 164.525 102.674L164.41 104.031L164.29 105.318L164.219 105.971C164.213 106.017 164.208 106.063 164.202 106.108C164.169 106.4 164.032 106.668 163.819 106.863C163.605 107.058 163.329 107.165 163.043 107.165L162.69 107.173L162.25 107.196L161.907 107.222L161.106 107.292L160.403 107.363C160.211 107.384 160.012 107.403 159.806 107.421L159.168 107.472L158.486 107.518L157.763 107.557L156.996 107.59L156.596 107.604L155.766 107.627C154.945 107.648 154.103 107.595 153.24 107.531L151.931 107.432C151.257 107.382 150.58 107.354 149.905 107.351ZM124.532 95.3161H142.071L143.565 95.3062L144.581 95.2915L145.238 95.2761L145.976 95.25C146.637 95.1823 147.275 94.9656 147.844 94.6154V93.8231C147.818 92.7899 147.645 91.7662 147.329 90.7846C146.634 88.5308 145.237 86.5733 143.353 85.2128C141.468 83.8523 139.2 83.1641 136.897 83.2538C134.729 83.1194 132.57 83.6349 130.683 84.7374C128.796 85.84 127.263 87.482 126.27 89.4631C125.388 91.3059 124.801 93.2818 124.532 95.3161Z" fill="white"/>
</svg>
