<svg width="193" height="192" viewBox="0 0 193 192" fill="none" xmlns="http://www.w3.org/2000/svg">
<path d="M160.625 0H32.375C14.7709 0 0.5 14.6368 0.5 32.6923V159.308C0.5 177.363 14.7709 192 32.375 192H160.625C178.229 192 192.5 177.363 192.5 159.308V32.6923C192.5 14.6368 178.229 0 160.625 0Z" fill="#1D2325"/>
<path d="M93.5405 115.223H63.788L57.734 134.51C57.6516 134.862 57.4522 135.173 57.17 135.39C56.8878 135.607 56.5406 135.717 56.1883 135.699H41.1185C40.2598 135.699 39.959 135.215 40.217 134.245L65.9772 58.1546C66.2345 57.3623 66.4925 56.46 66.7498 55.4469C67.0873 53.6838 67.2598 51.8931 67.265 50.0969C67.2475 49.9713 67.2587 49.8432 67.2978 49.7228C67.3369 49.6023 67.4028 49.4929 67.4902 49.4031C67.5777 49.3133 67.6843 49.2457 67.8017 49.2055C67.9191 49.1653 68.044 49.1537 68.1665 49.1715H88.646C89.246 49.1715 89.5895 49.3923 89.6765 49.8331L118.914 134.378C119.172 135.259 118.914 135.7 118.141 135.699H101.397C101.109 135.732 100.82 135.656 100.583 135.486C100.346 135.316 100.177 135.063 100.109 134.775L93.5405 115.223ZM68.4245 98.5784H88.775L88.4848 97.5962L88.019 96.0408L87.6868 94.9485L87.1565 93.2285L86.0293 89.6077L82.463 78.0361C81.8222 75.9576 81.2071 73.8708 80.618 71.7761L80.147 70.0761L79.5965 68.0661L78.7565 64.9508L78.599 64.3638H78.4708C77.8263 67.5347 77.0415 70.6739 76.1188 73.7715L74.2078 80.0762L72.095 87.0854C71.903 87.7223 71.7125 88.3523 71.5213 88.9746L70.9513 90.8192L70.3843 92.6208L69.8203 94.3777L69.2593 96.0908C69.0733 96.6546 68.8873 97.2108 68.702 97.76L68.4245 98.5784ZM136.3 63.1746C134.987 63.2287 133.677 62.9978 132.456 62.497C131.235 61.9962 130.131 61.2368 129.217 60.2685C128.304 59.2581 127.595 58.0727 127.131 56.7804C126.667 55.4881 126.456 54.1145 126.511 52.7385C126.465 51.3762 126.699 50.0192 127.198 48.756C127.697 47.4929 128.451 46.3519 129.409 45.4077C131.258 43.5874 133.72 42.5687 136.283 42.5638L136.558 42.5669C139.649 42.5669 142.075 43.5131 143.836 45.4069C144.724 46.3909 145.414 47.545 145.867 48.803C146.32 50.0611 146.527 51.3984 146.476 52.7385C146.53 54.12 146.312 55.4985 145.837 56.7922C145.361 58.0859 144.637 59.2683 143.707 60.2692C142.768 61.2184 141.653 61.9654 140.428 62.4661C139.204 62.9668 137.894 63.2111 136.576 63.1846L136.3 63.1746ZM127.413 134.378V71.2331C127.413 70.4408 127.755 70.0438 128.443 70.0438H144.286C144.973 70.0438 145.316 70.44 145.317 71.2331V134.378C145.317 135.259 144.973 135.7 144.286 135.699H128.572C127.84 135.699 127.455 135.304 127.417 134.513L127.413 134.378Z" fill="white"/>
</svg>
