<svg width="52" height="52" viewBox="0 0 52 52" fill="none" xmlns="http://www.w3.org/2000/svg">
<path d="M17.9187 32.852C19.9152 32.852 21.5402 32.144 21.5402 29.9038C21.5402 27.6172 20.1821 26.7234 18.0232 26.7118H12.6839V32.852H17.9187Z" fill="white"/>
<path d="M17.292 17.8092C19.0562 17.8092 20.6464 18.2967 20.6464 20.3511C20.6464 22.2431 19.4045 23.0092 17.6518 23.0092H12.6955V17.8092H17.292Z" fill="white"/>
<path fill-rule="evenodd" clip-rule="evenodd" d="M36.7172 0.156C33.9456 0.0259998 33.0642 0 26 0C18.9358 0 18.0544 0.0337998 15.2828 0.156C12.5112 0.286 10.6288 0.7202 8.97 1.365C7.23431 2.0169 5.66194 3.04 4.3628 4.3628C3.03889 5.66103 2.01561 7.23367 1.365 8.97C0.7202 10.6288 0.286 12.5112 0.156 15.2828C0.0259998 18.0544 0 18.9358 0 26C0 33.0642 0.0337998 33.9456 0.156 36.7172C0.286 39.4862 0.7202 41.3738 1.365 43.03C2.01742 44.7654 3.04046 46.3377 4.3628 47.6372C5.66157 48.9605 7.23405 49.9836 8.97 50.635C10.6288 51.2772 12.5138 51.714 15.2828 51.844C18.0544 51.974 18.9358 52 26 52C33.0642 52 33.9456 51.9662 36.7172 51.844C39.4862 51.714 41.3738 51.2772 43.03 50.635C44.765 49.9818 46.3371 48.9588 47.6372 47.6372C48.9609 46.3388 49.9842 44.7662 50.635 43.03C51.2772 41.3712 51.714 39.4862 51.844 36.7172C51.974 33.9456 52 33.0642 52 26C52 18.9358 51.9662 18.0544 51.844 15.2828C51.714 12.5138 51.2772 10.6262 50.635 8.97C49.9823 7.23473 48.9593 5.66253 47.6372 4.3628C46.1916 2.9198 44.746 2.0254 43.03 1.365C41.3712 0.7202 39.4862 0.286 36.7172 0.156ZM22.3759 24.1815C25.1152 24.9592 26.4384 27.3734 26.4384 30.1708C26.4384 34.6975 22.6429 36.6359 18.592 36.6592H7.78571V14.3734H18.2902C22.1089 14.3734 25.417 15.4529 25.417 19.8868C25.417 22.127 24.3723 23.2297 22.3759 24.1815ZM21.5402 29.9038C21.5402 32.144 19.9152 32.852 17.9187 32.852H12.6839V26.7118H18.0232C20.1821 26.7234 21.5402 27.6172 21.5402 29.9038ZM20.6464 20.3511C20.6464 18.2967 19.0562 17.8092 17.292 17.8092H12.6955V23.0092H17.6518C19.4045 23.0092 20.6464 22.2431 20.6464 20.3511ZM31.4295 17.3681H40.4598V15.1743H31.4295V17.3681ZM36.1536 19.7011C41.2027 19.7011 44 23.6824 44 28.4529C44 28.6441 43.9891 28.8407 43.9785 29.0316C43.9736 29.1188 43.9688 29.2049 43.9652 29.2886H32.3348C32.3348 31.8654 33.6929 33.3859 36.2929 33.3859C37.6393 33.3859 39.3687 32.6663 39.7982 31.285H43.7098C42.5027 34.9877 40.0071 36.7172 36.1536 36.7172C31.0696 36.7172 27.9009 33.2699 27.9009 28.244C27.9009 23.3922 31.2321 19.7011 36.1536 19.7011ZM36.0027 23.044C33.8786 23.044 32.4625 24.3672 32.3232 26.4913H39.5429C39.3455 24.344 38.2312 23.044 36.0027 23.044Z" fill="white"/>
</svg>
