<svg width="548" height="582" viewBox="0 0 548 582" fill="none" xmlns="http://www.w3.org/2000/svg">
<path d="M203.915 522.133C173.816 574.303 107.152 592.178 55.0183 562.058C2.88431 531.937 -14.9781 465.227 15.1215 413.056C45.221 360.886 111.885 343.011 164.019 373.131C216.152 403.252 234.015 469.962 203.915 522.133Z" fill="#1D2325"/>
<path fill-rule="evenodd" clip-rule="evenodd" d="M62.513 549.067C107.478 575.046 164.974 559.629 190.934 514.633C216.894 469.637 201.488 412.1 156.524 386.122C111.559 360.143 54.0631 375.56 28.1027 420.556C2.14238 465.552 17.5484 523.089 62.513 549.067ZM55.0183 562.058C107.152 592.178 173.816 574.303 203.915 522.133C234.015 469.962 216.152 403.252 164.019 373.131C111.885 343.011 45.221 360.886 15.1215 413.056C-14.9781 465.227 2.88431 531.937 55.0183 562.058Z" fill="white"/>
<path d="M673.499 436.475C593.211 575.635 415.393 623.315 276.331 542.971C137.268 462.627 89.6221 284.684 169.91 145.524C250.197 6.36389 428.016 -41.3158 567.078 39.0282C706.14 119.372 753.786 297.315 673.499 436.475Z" fill="#1D2325"/>
<path fill-rule="evenodd" clip-rule="evenodd" d="M282.683 531.961C415.669 608.794 585.717 563.198 662.497 430.119C739.276 297.039 693.712 126.871 560.726 50.0381C427.74 -26.7952 257.691 18.8011 180.912 151.88C104.132 284.96 149.697 455.128 282.683 531.961ZM276.331 542.971C415.393 623.315 593.211 575.635 673.499 436.475C753.786 297.315 706.14 119.372 567.078 39.0282C428.016 -41.3158 250.197 6.36389 169.91 145.524C89.6221 284.684 137.268 462.627 276.331 542.971Z" fill="white"/>
</svg>
