<svg width="193" height="192" viewBox="0 0 193 192" fill="none" xmlns="http://www.w3.org/2000/svg">
<path d="M34.75 0H158.75C177.55 0 192.75 15.5897 192.75 34.8718V157.128C192.75 176.41 177.55 192 158.75 192H34.75C15.95 192 0.75 176.41 0.75 157.128V34.8718C0.75 15.5897 15.95 0 34.75 0Z" fill="#1D2325"/>
<path d="M96.5753 137.812C96.5753 149.176 87.2858 158.408 75.8292 158.408C64.3725 158.408 55.083 149.176 55.083 137.812C55.083 126.449 64.3725 117.217 75.8292 117.217H96.5753V137.812Z" fill="white" stroke="#1D2325" stroke-width="1.5"/>
<path d="M55.083 95.1218C55.083 83.7583 64.3725 74.5264 75.8292 74.5264H96.5753V115.717H75.8292C64.3725 115.717 55.083 106.485 55.083 95.1218Z" fill="white" stroke="#1D2325" stroke-width="1.5"/>
<path d="M55.083 52.4308C55.083 41.0674 64.3725 31.8354 75.8292 31.8354H96.5753V73.0262H75.8292C64.3725 73.0262 55.083 63.7943 55.083 52.4308Z" fill="white" stroke="#1D2325" stroke-width="1.5"/>
<path d="M98.0762 31.8354H118.822C130.279 31.8354 139.568 41.0674 139.568 52.4308C139.568 63.7943 130.279 73.0262 118.822 73.0262H98.0762V31.8354Z" fill="white" stroke="#1D2325" stroke-width="1.5"/>
<path d="M140.318 95.1222C140.318 106.905 130.688 116.468 118.822 116.468C106.956 116.468 97.3262 106.905 97.3262 95.1222C97.3262 83.3396 106.956 73.7769 118.822 73.7769C130.688 73.7769 140.318 83.3396 140.318 95.1222Z" fill="white"/>
</svg>
