<svg width="221" height="101" viewBox="0 0 221 101" fill="none" xmlns="http://www.w3.org/2000/svg">
<path d="M206.153 165.491C175.783 218.094 108.519 236.117 55.9154 205.747C3.31203 175.376 -14.7112 108.113 15.6594 55.5092C46.0299 2.90578 113.294 -15.1175 165.897 15.2531C218.5 45.6237 236.524 112.887 206.153 165.491Z" fill="#1D2325"/>
<path fill-rule="evenodd" clip-rule="evenodd" d="M63.4777 192.649C108.847 218.843 166.861 203.298 193.055 157.929C219.249 112.559 203.704 54.5454 158.335 28.3513C112.965 2.15717 54.9516 17.7019 28.7575 63.0714C2.56342 108.441 18.1082 166.455 63.4777 192.649ZM55.9154 205.747C108.519 236.117 175.783 218.094 206.153 165.491C236.524 112.887 218.5 45.6237 165.897 15.2531C113.294 -15.1175 46.0299 2.90578 15.6594 55.5092C-14.7112 108.113 3.31203 175.376 55.9154 205.747Z" fill="white"/>
</svg>
