<svg width="212" height="400" viewBox="0 0 212 400" fill="none" xmlns="http://www.w3.org/2000/svg">
<path d="M185.176 299.983C129.957 395.626 7.65924 428.395 -87.9833 373.176C-183.626 317.957 -216.395 195.659 -161.176 100.017C-105.957 4.37414 16.3407 -28.3954 111.983 26.8238C207.626 82.0431 240.395 204.341 185.176 299.983Z" fill="#FF7511"/>
<path fill-rule="evenodd" clip-rule="evenodd" d="M-80.5911 360.372C7.98018 411.509 121.236 381.162 172.372 292.591C223.509 204.02 193.162 90.7642 104.591 39.6275C16.0198 -11.5092 -97.2358 18.8376 -148.372 107.409C-199.509 195.98 -169.162 309.236 -80.5911 360.372ZM-87.9833 373.176C7.65924 428.395 129.957 395.626 185.176 299.983C240.395 204.341 207.626 82.0431 111.983 26.8238C16.3407 -28.3954 -105.957 4.37414 -161.176 100.017C-216.395 195.659 -183.626 317.957 -87.9833 373.176Z" fill="white"/>
</svg>
