<svg width="308" height="641" viewBox="0 0 308 641" fill="none" xmlns="http://www.w3.org/2000/svg">
<path d="M697.704 477.939C609.605 630.159 414.485 682.313 261.893 594.429C109.3 506.545 57.0183 311.902 145.118 159.682C233.217 7.46167 428.336 -44.6928 580.929 43.1915C733.521 131.076 785.803 325.719 697.704 477.939Z" fill="#1D2325"/>
<path fill-rule="evenodd" clip-rule="evenodd" d="M269.38 581.493C414.81 665.253 600.772 615.546 684.736 470.47C768.701 325.395 718.873 139.887 573.442 56.1275C428.011 -27.632 242.05 22.0747 158.085 167.15C74.1208 312.226 123.949 497.734 269.38 581.493ZM261.893 594.429C414.485 682.313 609.605 630.159 697.704 477.939C785.803 325.719 733.521 131.076 580.929 43.1915C428.336 -44.6928 233.217 7.46167 145.118 159.682C57.0183 311.902 109.3 506.545 261.893 594.429Z" fill="white"/>
<path d="M203.702 586.172C173.634 638.124 107.041 655.924 54.9612 625.93C2.88181 595.935 -14.9619 529.504 15.1061 477.552C45.1742 425.599 111.768 407.799 163.847 437.794C215.927 467.788 233.77 534.219 203.702 586.172Z" fill="#FF7511"/>
<path fill-rule="evenodd" clip-rule="evenodd" d="M62.4481 612.993C107.366 638.863 164.801 623.511 190.735 578.703C216.668 533.895 201.278 476.6 156.36 450.73C111.443 424.86 54.0069 440.212 28.0738 485.02C2.14066 529.828 17.5305 587.124 62.4481 612.993ZM54.9612 625.93C107.041 655.924 173.634 638.124 203.702 586.172C233.77 534.219 215.927 467.788 163.847 437.794C111.768 407.799 45.1742 425.599 15.1061 477.552C-14.9619 529.504 2.88181 595.935 54.9612 625.93Z" fill="white"/>
</svg>
