<svg width="53" height="53" viewBox="0 0 53 53" fill="none" xmlns="http://www.w3.org/2000/svg">
<path d="M26.834 0.333984C33.8982 0.333984 34.7796 0.359984 37.5512 0.489984C40.3202 0.619984 42.2052 1.05418 43.864 1.69898C45.58 2.35938 47.0256 3.25378 48.4712 4.69678C49.7933 5.99651 50.8163 7.56872 51.469 9.30398C52.1112 10.9602 52.548 12.8478 52.678 15.6168C52.8002 18.3884 52.834 19.2698 52.834 26.334C52.834 33.3982 52.808 34.2796 52.678 37.0512C52.548 39.8202 52.1112 41.7052 51.469 43.364C50.8181 45.1002 49.7949 46.6728 48.4712 47.9712C47.1711 49.2928 45.599 50.3157 43.864 50.969C42.2078 51.6112 40.3202 52.048 37.5512 52.178C34.7796 52.3002 33.8982 52.334 26.834 52.334C19.7698 52.334 18.8884 52.308 16.1168 52.178C13.3478 52.048 11.4628 51.6112 9.80398 50.969C8.06803 50.3176 6.49555 49.2944 5.19678 47.9712C3.87444 46.6717 2.85141 45.0994 2.19898 43.364C1.55418 41.7078 1.11998 39.8202 0.989984 37.0512C0.867784 34.2796 0.833984 33.3982 0.833984 26.334C0.833984 19.2698 0.859984 18.3884 0.989984 15.6168C1.11998 12.8452 1.55418 10.9628 2.19898 9.30398C2.8496 7.56765 3.87287 5.99502 5.19678 4.69678C6.49593 3.37399 8.0683 2.35088 9.80398 1.69898C11.4628 1.05418 13.3452 0.619984 16.1168 0.489984C18.8884 0.367784 19.7698 0.333984 26.834 0.333984ZM26.834 13.334C23.3862 13.334 20.0796 14.7036 17.6416 17.1416C15.2036 19.5796 13.834 22.8862 13.834 26.334C13.834 29.7818 15.2036 33.0884 17.6416 35.5264C20.0796 37.9643 23.3862 39.334 26.834 39.334C30.2818 39.334 33.5884 37.9643 36.0264 35.5264C38.4643 33.0884 39.834 29.7818 39.834 26.334C39.834 22.8862 38.4643 19.5796 36.0264 17.1416C33.5884 14.7036 30.2818 13.334 26.834 13.334ZM43.734 12.684C43.734 11.822 43.3916 10.9954 42.7821 10.3859C42.1726 9.77639 41.3459 9.43398 40.484 9.43398C39.622 9.43398 38.7954 9.77639 38.1859 10.3859C37.5764 10.9954 37.234 11.822 37.234 12.684C37.234 13.5459 37.5764 14.3726 38.1859 14.9821C38.7954 15.5916 39.622 15.934 40.484 15.934C41.3459 15.934 42.1726 15.5916 42.7821 14.9821C43.3916 14.3726 43.734 13.5459 43.734 12.684ZM26.834 18.534C28.9027 18.534 30.8866 19.3558 32.3494 20.8186C33.8122 22.2813 34.634 24.2653 34.634 26.334C34.634 28.4027 33.8122 30.3866 32.3494 31.8494C30.8866 33.3122 28.9027 34.134 26.834 34.134C24.7653 34.134 22.7813 33.3122 21.3186 31.8494C19.8558 30.3866 19.034 28.4027 19.034 26.334C19.034 24.2653 19.8558 22.2813 21.3186 20.8186C22.7813 19.3558 24.7653 18.534 26.834 18.534Z" fill="white"/>
</svg>
