<svg width="60" height="120" viewBox="0 0 60 120" fill="none" xmlns="http://www.w3.org/2000/svg">
<mask id="path-1-inside-1_45_86" fill="white">
<path d="M59.5691 119.559C60.1436 118.971 60.1436 118.018 59.5691 117.43L2.51178 59.0256C1.9372 58.4374 1.00561 58.4374 0.431026 59.0256C-0.143559 59.6137 -0.143555 60.5673 0.431026 61.1554L57.4883 119.559C58.0629 120.148 58.9945 120.148 59.5691 119.559Z"/>
<path d="M0.430939 60.9754C1.00552 61.5635 1.93711 61.5635 2.51169 60.9754L59.569 2.57146C60.1436 1.98331 60.1436 1.02974 59.569 0.441598C58.9944 -0.146548 58.0628 -0.146548 57.4883 0.441597L0.430931 58.8455C-0.143654 59.4337 -0.143646 60.3872 0.430939 60.9754Z"/>
</mask>
<path d="M57.4883 119.559L59.6342 117.463H59.6342L57.4883 119.559ZM0.431026 61.1554L-1.71489 63.2519L0.431026 61.1554ZM2.51178 59.0256L0.365868 61.122L2.51178 59.0256ZM59.5691 117.43L61.715 115.333L59.5691 117.43ZM0.430931 58.8455L-1.71498 56.7491L0.430931 58.8455ZM57.4883 0.441597L59.6342 2.53803L57.4883 0.441597ZM59.569 2.57146L61.7149 4.6679L59.569 2.57146ZM2.51169 60.9754L0.365776 58.8789L2.51169 60.9754ZM57.4231 119.526L0.365868 61.122L4.6577 56.9291L61.715 115.333L57.4231 119.526ZM2.57694 59.059L59.6342 117.463L55.3424 121.656L-1.71489 63.2519L2.57694 59.059ZM59.6342 117.463C59.0318 116.846 58.0255 116.846 57.4231 117.463L61.715 121.656C59.9634 123.449 57.094 123.449 55.3424 121.656L59.6342 117.463ZM2.57694 61.122C3.14114 60.5445 3.14114 59.6365 2.57694 59.059L-1.71489 63.2519C-3.42825 61.4981 -3.42825 58.6829 -1.71489 56.9291L2.57694 61.122ZM0.365868 61.122C0.968258 61.7386 1.97456 61.7386 2.57694 61.122L-1.71489 56.9291C0.0366707 55.1362 2.90614 55.1362 4.6577 56.9291L0.365868 61.122ZM61.715 115.333C63.4283 117.087 63.4283 119.902 61.715 121.656L57.4231 117.463C56.859 118.04 56.859 118.948 57.4231 119.526L61.715 115.333ZM0.365776 58.8789L57.4231 0.475021L61.7149 4.6679L4.65761 63.0718L0.365776 58.8789ZM59.6342 2.53803L2.57685 60.9419L-1.71498 56.7491L55.3423 -1.65484L59.6342 2.53803ZM2.57685 60.9419C3.14106 60.3644 3.14103 59.4564 2.57685 58.8789L-1.71498 63.0718C-3.42833 61.318 -3.42836 58.5029 -1.71498 56.7491L2.57685 60.9419ZM57.4231 2.53803C58.0255 3.15464 59.0318 3.15464 59.6342 2.53803L55.3423 -1.65484C57.0939 -3.44774 59.9634 -3.44774 61.7149 -1.65484L57.4231 2.53803ZM57.4231 0.475021C56.8589 1.05254 56.8589 1.96053 57.4231 2.53803L61.7149 -1.65484C63.4283 0.0989582 63.4283 2.91409 61.7149 4.6679L57.4231 0.475021ZM4.65761 63.0718C2.90605 64.8647 0.0365791 64.8647 -1.71498 63.0718L2.57685 58.8789C1.97446 58.2623 0.968163 58.2623 0.365776 58.8789L4.65761 63.0718Z" fill="white" mask="url(#path-1-inside-1_45_86)"/>
</svg>
