<svg width="216" height="216" viewBox="0 0 216 216" fill="none" xmlns="http://www.w3.org/2000/svg">
<path d="M216 108C216 167.647 167.647 216 108 216C48.3532 216 0 167.647 0 108C0 48.3533 48.3532 0 108 0C167.647 0 216 48.3533 216 108Z" fill="#FF7511"/>
<path fill-rule="evenodd" clip-rule="evenodd" d="M108 201.148C159.444 201.148 201.148 159.444 201.148 108C201.148 56.5557 159.444 14.8519 108 14.8519C56.5557 14.8519 14.8519 56.5557 14.8519 108C14.8519 159.444 56.5557 201.148 108 201.148ZM108 216C167.647 216 216 167.647 216 108C216 48.3533 167.647 0 108 0C48.3532 0 0 48.3533 0 108C0 167.647 48.3532 216 108 216Z" fill="white"/>
</svg>
