<svg width="193" height="192" viewBox="0 0 193 192" fill="none" xmlns="http://www.w3.org/2000/svg">
<path d="M79.05 66.6285C76.09 65.3977 72.89 64.9053 69.61 64.9874C67.53 64.9874 65.69 64.9874 64.17 65.0694C62.57 64.9874 61.45 65.0694 60.89 65.1515V92.7219C62.01 92.804 63.05 92.886 64.01 92.886H68.25C71.37 92.886 74.49 92.3937 77.45 91.409C80.01 90.6705 82.25 89.1115 84.01 87.0601C85.69 85.0088 86.49 82.2189 86.49 78.6085C86.57 76.0648 85.93 73.5211 84.65 71.3056C83.3161 69.1751 81.3543 67.5366 79.05 66.6285ZM158.25 0H34.25C15.45 0 0.25 15.5904 0.25 34.8733V157.127C0.25 176.41 15.45 192 34.25 192H158.25C177.05 192 192.25 176.41 192.25 157.127V34.8733C192.25 15.5904 177.05 0 158.25 0ZM99.122 95.5938C95.93 100.189 91.45 103.635 86.25 105.605C80.81 107.656 74.81 108.394 68.25 108.394C66.33 108.394 65.05 108.394 64.25 108.312C63.45 108.23 62.33 108.23 60.81 108.23V134.562C60.89 135.136 60.49 135.637 59.93 135.719H44.41C43.77 135.719 43.45 135.382 43.45 134.644V50.2175C43.45 49.6431 43.69 49.3149 44.25 49.3149C45.61 49.3149 46.89 49.3149 48.73 49.2329C50.65 49.1508 52.65 49.1508 54.81 49.0688C56.97 48.9867 59.29 48.9867 61.77 48.9047C64.25 48.8226 66.65 48.8226 69.05 48.8226C75.61 48.8226 81.05 49.6431 85.53 51.3663C89.53 52.7612 93.21 55.0588 96.25 58.0948C98.81 60.7205 100.81 63.9207 102.09 67.449C103.282 70.8953 103.922 74.4237 103.922 78.1161C103.93 85.1729 102.33 90.9988 99.122 95.5938ZM155.85 127.513C153.61 130.795 150.482 133.331 146.89 134.824C142.97 136.539 138.17 137.434 132.402 137.434C128.73 137.434 125.122 137.114 121.53 136.375C118.73 135.875 115.93 134.98 113.37 133.749C112.81 133.429 112.402 132.855 112.482 132.198V117.921C112.482 117.683 112.57 117.347 112.81 117.182C113.042 117.018 113.29 117.1 113.53 117.264C116.65 119.152 119.93 120.473 123.45 121.285C126.482 122.106 129.682 122.516 132.89 122.516C135.93 122.516 138.09 122.098 139.53 121.359C140.81 120.785 141.69 119.39 141.69 117.913C141.69 116.756 141.05 115.697 139.77 114.631C138.49 113.572 135.858 112.341 131.938 110.766C127.858 109.289 124.106 107.319 120.578 104.866C118.075 103.027 115.996 100.646 114.49 97.8914C113.219 95.2952 112.589 92.418 112.658 89.5136C112.658 85.9852 113.618 82.621 115.386 79.5849C117.386 76.3027 120.338 73.677 123.778 72.0359C127.53 70.0748 132.25 69.1722 137.93 69.1722C141.21 69.1722 144.57 69.4183 147.85 69.9107C150.25 70.2389 152.57 70.8953 154.73 71.7979C155.042 71.88 155.37 72.2082 155.53 72.5364C155.61 72.8646 155.69 73.1929 155.69 73.5211V86.896C155.69 87.2242 155.53 87.5525 155.29 87.7166C154.57 87.8807 154.17 87.8807 153.85 87.7166C151.45 86.4037 148.89 85.5011 146.17 84.9267C143.21 84.2703 140.25 83.86 137.21 83.86C135.61 83.7779 133.93 84.0241 132.402 84.4344C131.37 84.6805 130.482 85.2549 129.922 86.0755C129.522 86.7319 129.282 87.5525 129.282 88.291C129.282 89.0294 129.602 89.7679 130.09 90.4244C130.81 91.327 131.762 92.0655 132.81 92.6399C134.642 93.6245 136.57 94.5271 138.482 95.3477C142.81 96.8247 146.97 98.876 150.81 101.338C153.45 103.053 155.61 105.358 157.122 108.148C158.402 110.758 159.042 113.646 158.962 116.592C159.05 120.456 157.93 124.305 155.85 127.513Z" fill="#1D2325"/>
<path fill-rule="evenodd" clip-rule="evenodd" d="M99.122 95.5938C95.93 100.189 91.45 103.635 86.25 105.605C80.81 107.656 74.81 108.394 68.25 108.394C66.33 108.394 65.05 108.394 64.25 108.312C63.45 108.23 62.33 108.23 60.81 108.23V134.562C60.89 135.136 60.49 135.637 59.93 135.719H44.41C43.77 135.719 43.45 135.382 43.45 134.644V50.2175C43.45 49.6431 43.69 49.3149 44.25 49.3149C45.61 49.3149 46.89 49.3149 48.73 49.2329C50.65 49.1508 52.65 49.1508 54.81 49.0688C56.97 48.9867 59.29 48.9867 61.77 48.9047C64.25 48.8226 66.65 48.8226 69.05 48.8226C75.61 48.8226 81.05 49.6431 85.53 51.3663C89.53 52.7612 93.21 55.0588 96.25 58.0948C98.81 60.7205 100.81 63.9207 102.09 67.449C103.282 70.8953 103.922 74.4237 103.922 78.1161C103.93 85.1729 102.33 90.9988 99.122 95.5938ZM69.61 64.9874C72.89 64.9053 76.09 65.3977 79.05 66.6285C81.3543 67.5366 83.3161 69.1751 84.65 71.3056C85.93 73.5211 86.57 76.0648 86.49 78.6085C86.49 82.2189 85.69 85.0088 84.01 87.0601C82.25 89.1115 80.01 90.6705 77.45 91.409C74.49 92.3937 71.37 92.886 68.25 92.886H64.01C63.05 92.886 62.01 92.804 60.89 92.7219V65.1515C61.45 65.0694 62.57 64.9874 64.17 65.0694C65.69 64.9874 67.53 64.9874 69.61 64.9874Z" fill="white"/>
<path d="M155.85 127.513C153.61 130.795 150.482 133.331 146.89 134.824C142.97 136.539 138.17 137.434 132.402 137.434C128.73 137.434 125.122 137.114 121.53 136.375C118.73 135.875 115.93 134.98 113.37 133.749C112.81 133.429 112.402 132.855 112.482 132.198V117.921C112.482 117.683 112.57 117.347 112.81 117.182C113.042 117.018 113.29 117.1 113.53 117.264C116.65 119.152 119.93 120.473 123.45 121.285C126.482 122.106 129.682 122.516 132.89 122.516C135.93 122.516 138.09 122.098 139.53 121.359C140.81 120.785 141.69 119.39 141.69 117.913C141.69 116.756 141.05 115.697 139.77 114.631C138.49 113.572 135.858 112.341 131.938 110.766C127.858 109.289 124.106 107.319 120.578 104.866C118.075 103.027 115.996 100.646 114.49 97.8914C113.219 95.2952 112.589 92.418 112.658 89.5136C112.658 85.9852 113.618 82.621 115.386 79.5849C117.386 76.3027 120.338 73.677 123.778 72.0359C127.53 70.0748 132.25 69.1722 137.93 69.1722C141.21 69.1722 144.57 69.4183 147.85 69.9107C150.25 70.2389 152.57 70.8953 154.73 71.7979C155.042 71.88 155.37 72.2082 155.53 72.5364C155.61 72.8646 155.69 73.1929 155.69 73.5211V86.896C155.69 87.2242 155.53 87.5525 155.29 87.7166C154.57 87.8807 154.17 87.8807 153.85 87.7166C151.45 86.4037 148.89 85.5011 146.17 84.9267C143.21 84.2703 140.25 83.86 137.21 83.86C135.61 83.7779 133.93 84.0241 132.402 84.4344C131.37 84.6805 130.482 85.2549 129.922 86.0755C129.522 86.7319 129.282 87.5525 129.282 88.291C129.282 89.0294 129.602 89.7679 130.09 90.4244C130.81 91.327 131.762 92.0655 132.81 92.6399C134.642 93.6245 136.57 94.5271 138.482 95.3477C142.81 96.8247 146.97 98.876 150.81 101.338C153.45 103.053 155.61 105.358 157.122 108.148C158.402 110.758 159.042 113.646 158.962 116.592C159.05 120.456 157.93 124.305 155.85 127.513Z" fill="white"/>
</svg>
