<svg width="60" height="120" viewBox="0 0 60 120" fill="none" xmlns="http://www.w3.org/2000/svg">
<mask id="path-1-inside-1_45_87" fill="white">
<path d="M0.430939 119.559C-0.143646 118.971 -0.143646 118.018 0.430938 117.43L57.4882 59.0256C58.0628 58.4374 58.9944 58.4374 59.569 59.0256C60.1436 59.6137 60.1436 60.5673 59.569 61.1554L2.51169 119.559C1.93711 120.148 1.00552 120.148 0.430939 119.559Z"/>
<path d="M59.5691 60.9754C58.9945 61.5635 58.0629 61.5635 57.4883 60.9754L0.430991 2.57146C-0.143594 1.98331 -0.143592 1.02974 0.430992 0.441598C1.00558 -0.146548 1.93716 -0.146548 2.51175 0.441597L59.5691 58.8455C60.1437 59.4337 60.1436 60.3872 59.5691 60.9754Z"/>
</mask>
<path d="M2.51169 119.559L0.365775 117.463H0.365775L2.51169 119.559ZM59.569 61.1554L61.7149 63.2519L59.569 61.1554ZM57.4882 59.0256L59.6341 61.122L57.4882 59.0256ZM0.430938 117.43L-1.71498 115.333L0.430938 117.43ZM59.5691 58.8455L61.715 56.7491L59.5691 58.8455ZM2.51175 0.441597L0.365832 2.53803L2.51175 0.441597ZM0.430991 2.57146L-1.71492 4.6679L0.430991 2.57146ZM57.4883 60.9754L59.6342 58.8789L57.4883 60.9754ZM2.57685 119.526L59.6341 61.122L55.3423 56.9291L-1.71498 115.333L2.57685 119.526ZM57.4231 59.059L0.365775 117.463L4.65761 121.656L61.7149 63.2519L57.4231 59.059ZM0.365775 117.463C0.968165 116.846 1.97447 116.846 2.57685 117.463L-1.71498 121.656C0.03658 123.449 2.90605 123.449 4.65761 121.656L0.365775 117.463ZM57.4231 61.122C56.8589 60.5445 56.8589 59.6365 57.4231 59.059L61.7149 63.2519C63.4282 61.4981 63.4283 58.6829 61.7149 56.9291L57.4231 61.122ZM59.6341 61.122C59.0317 61.7386 58.0254 61.7386 57.4231 61.122L61.7149 56.9291C59.9633 55.1362 57.0939 55.1362 55.3423 56.9291L59.6341 61.122ZM-1.71498 115.333C-3.42834 117.087 -3.42834 119.902 -1.71498 121.656L2.57685 117.463C3.14105 118.04 3.14105 118.948 2.57685 119.526L-1.71498 115.333ZM59.6342 58.8789L2.57691 0.475021L-1.71492 4.6679L55.3424 63.0718L59.6342 58.8789ZM0.365832 2.53803L57.4232 60.9419L61.715 56.7491L4.65766 -1.65484L0.365832 2.53803ZM57.4232 60.9419C56.8589 60.3644 56.859 59.4564 57.4231 58.8789L61.715 63.0718C63.4283 61.318 63.4284 58.5029 61.715 56.7491L57.4232 60.9419ZM2.57691 2.53803C1.97452 3.15464 0.96822 3.15464 0.365832 2.53803L4.65766 -1.65484C2.9061 -3.44774 0.0366338 -3.44774 -1.71492 -1.65484L2.57691 2.53803ZM2.57691 0.475021C3.14111 1.05254 3.1411 1.96053 2.57691 2.53803L-1.71492 -1.65484C-3.42828 0.0989582 -3.42829 2.91409 -1.71492 4.6679L2.57691 0.475021ZM55.3424 63.0718C57.0939 64.8647 59.9634 64.8647 61.715 63.0718L57.4231 58.8789C58.0255 58.2623 59.0318 58.2623 59.6342 58.8789L55.3424 63.0718Z" fill="white" mask="url(#path-1-inside-1_45_87)"/>
</svg>
