<svg width="52" height="52" viewBox="0 0 52 52" fill="none" xmlns="http://www.w3.org/2000/svg">
<path fill-rule="evenodd" clip-rule="evenodd" d="M26 0C33.0642 0 33.9456 0.0259998 36.7172 0.156C39.4862 0.286 41.3712 0.7202 43.03 1.365C44.746 2.0254 46.1916 2.9198 47.6372 4.3628C48.9593 5.66253 49.9823 7.23473 50.635 8.97C51.2772 10.6262 51.714 12.5138 51.844 15.2828C51.9662 18.0544 52 18.9358 52 26C52 33.0642 51.974 33.9456 51.844 36.7172C51.714 39.4862 51.2772 41.3712 50.635 43.03C49.9842 44.7662 48.9609 46.3388 47.6372 47.6372C46.3371 48.9588 44.765 49.9818 43.03 50.635C41.3738 51.2772 39.4862 51.714 36.7172 51.844C33.9456 51.9662 33.0642 52 26 52C18.9358 52 18.0544 51.974 15.2828 51.844C12.5138 51.714 10.6288 51.2772 8.97 50.635C7.23405 49.9836 5.66157 48.9605 4.3628 47.6372C3.04046 46.3377 2.01742 44.7654 1.365 43.03C0.720202 41.3738 0.286002 39.4862 0.156002 36.7172C0.0338021 33.9456 0 33.0642 0 26C0 18.9358 0.026002 18.0544 0.156002 15.2828C0.286002 12.5112 0.720202 10.6288 1.365 8.97C2.01562 7.23367 3.03889 5.66103 4.3628 4.3628C5.66195 3.04 7.23432 2.0169 8.97 1.365C10.6288 0.7202 12.5112 0.286 15.2828 0.156C18.0544 0.0337998 18.9358 0 26 0ZM10.9037 25.3578C18.4827 22.0558 23.5398 19.8783 26.0683 18.8253C33.2865 15.8223 34.7913 15.299 35.7663 15.2828C36.1255 15.2752 36.478 15.3809 36.7738 15.585C36.9814 15.7653 37.1137 16.017 37.1442 16.2903C37.1961 16.6289 37.2103 16.9723 37.1865 17.314L34.242 36.0048C33.878 37.9548 33.1597 38.6048 32.4642 38.6698C31.2715 38.7803 30.2997 38.0913 29.224 37.3243C29.1936 37.3027 29.1632 37.2809 29.1326 37.2591C28.8783 37.0776 28.6163 36.8906 28.3465 36.7165C27.1505 35.93 26.2275 35.3028 25.3045 34.6723C24.4563 34.0938 23.6047 33.5186 22.542 32.8166C20.3352 31.3606 21.2582 30.47 22.4932 29.2805C22.7002 29.0824 22.9039 28.8808 23.1042 28.676C23.1783 28.5993 23.4871 28.3116 23.9377 27.8917C24.0407 27.7957 24.1511 27.6929 24.2678 27.584L24.3743 27.4849C26.4136 25.5874 30.1714 22.0908 30.2673 21.6788C30.2835 21.6105 30.2998 21.3538 30.147 21.2206C29.9975 21.0841 29.77 21.1295 29.6075 21.1685C29.38 21.2205 25.7237 23.6353 18.642 28.416C17.6052 29.1311 16.666 29.4756 15.821 29.4561C14.8947 29.4366 13.1073 28.9328 11.7812 28.5005L11.2125 28.3218L11.2081 28.3204C9.86158 27.8954 8.87261 27.5832 8.97 26.7943C9.0285 26.3263 9.67525 25.8453 10.9037 25.3578Z" fill="white"/>
</svg>
